ISO-10303-21;
HEADER;
FILE_DESCRIPTION(('FreeCAD Model'),'2;1');
FILE_NAME('Open CASCADE Shape Model','2026-04-30T16:05:35',(''),(''),
'Open CASCADE STEP processor 7.9','FreeCAD','Unknown');
FILE_SCHEMA((
'AP242_MANAGED_MODEL_BASED_3D_ENGINEERING_MIM_LF {1 0 10303 442 1 1 4 }'
));
ENDSEC;
DATA;
#1=APPLICATION_PROTOCOL_DEFINITION('international standard','ap242_managed_model_based_3d_engineering',2013,#2);
#2=APPLICATION_CONTEXT('Managed model based 3d engineering');
#3=SHAPE_DEFINITION_REPRESENTATION(#4,#10);
#4=PRODUCT_DEFINITION_SHAPE('','',#5);
#5=PRODUCT_DEFINITION('design','',#6,#9);
#6=PRODUCT_DEFINITION_FORMATION('','',#7);
#7=PRODUCT('Body','Body','',(#8));
#8=PRODUCT_CONTEXT('',#2,'mechanical');
#9=PRODUCT_DEFINITION_CONTEXT('part definition',#2,'design');
#10=ADVANCED_BREP_SHAPE_REPRESENTATION('',(#11,#15),#333);
#11=AXIS2_PLACEMENT_3D('',#12,#13,#14);
#12=CARTESIAN_POINT('',(0.,0.,0.));
#13=DIRECTION('',(0.,0.,1.));
#14=DIRECTION('',(1.,0.,0.));
#15=MANIFOLD_SOLID_BREP('',#16);
#16=CLOSED_SHELL('',(#17,#50,#68,#122,#131,#137,#159,#173,#190,#209,#227,#239,#250,#268,#274,#290,#308,#311,#328));
#17=ADVANCED_FACE('',(#18),#48,.T.);
#18=FACE_BOUND('',#19,.F.);
#19=EDGE_LOOP('',(#20,#29,#36,#40,#42,#43));
#20=ORIENTED_EDGE('',*,*,#21,.F.);
#21=EDGE_CURVE('',#22,#24,#26,.T.);
#22=VERTEX_POINT('',#23);
#23=CARTESIAN_POINT('',(-3.75,-4.875,0.));
#24=VERTEX_POINT('',#25);
#25=CARTESIAN_POINT('',(-3.75,-4.875,-3.6));
#26=LINE('',#23,#27);
#27=VECTOR('',#28,1.);
#28=DIRECTION('',(0.,0.,-1.));
#29=ORIENTED_EDGE('',*,*,#30,.F.);
#30=EDGE_CURVE('',#31,#22,#33,.T.);
#31=VERTEX_POINT('',#32);
#32=CARTESIAN_POINT('',(-6.,-4.874999997573,0.));
#33=CIRCLE('',#34,1.125);
#34=AXIS2_PLACEMENT_3D('',#35,#28,#14);
#35=CARTESIAN_POINT('',(-4.875,-4.875,0.));
#36=ORIENTED_EDGE('',*,*,#37,.F.);
#37=EDGE_CURVE('',#38,#31,#33,.T.);
#38=VERTEX_POINT('',#39);
#39=CARTESIAN_POINT('',(-4.875,-6.,0.));
#40=ORIENTED_EDGE('',*,*,#41,.F.);
#41=EDGE_CURVE('',#22,#38,#33,.T.);
#42=ORIENTED_EDGE('',*,*,#21,.T.);
#43=ORIENTED_EDGE('',*,*,#44,.T.);
#44=EDGE_CURVE('',#24,#24,#45,.T.);
#45=CIRCLE('',#46,1.125);
#46=AXIS2_PLACEMENT_3D('',#47,#28,#14);
#47=CARTESIAN_POINT('',(-4.875,-4.875,-3.6));
#48=CYLINDRICAL_SURFACE('',#49,1.125);
#49=AXIS2_PLACEMENT_3D('',#35,#13,#14);
#50=ADVANCED_FACE('',(#51),#66,.T.);
#51=FACE_BOUND('',#52,.T.);
#52=EDGE_LOOP('',(#53,#43,#60,#61));
#53=ORIENTED_EDGE('',*,*,#54,.F.);
#54=EDGE_CURVE('',#24,#55,#57,.T.);
#55=VERTEX_POINT('',#56);
#56=CARTESIAN_POINT('',(-4.15,-4.875,-4.));
#57=LINE('',#25,#58);
#58=VECTOR('',#59,1.);
#59=DIRECTION('',(-0.707106781187,0.,-0.707106781187));
#60=ORIENTED_EDGE('',*,*,#54,.T.);
#61=ORIENTED_EDGE('',*,*,#62,.F.);
#62=EDGE_CURVE('',#55,#55,#63,.T.);
#63=CIRCLE('',#64,0.725);
#64=AXIS2_PLACEMENT_3D('',#65,#28,#14);
#65=CARTESIAN_POINT('',(-4.875,-4.875,-4.));
#66=CONICAL_SURFACE('',#67,1.125,0.785398163397);
#67=AXIS2_PLACEMENT_3D('',#47,#13,#14);
#68=ADVANCED_FACE('',(#69),#121,.F.);
#69=FACE_BOUND('',#70,.F.);
#70=EDGE_LOOP('',(#71,#72,#73,#80,#87,#95,#102,#110,#115));
#71=ORIENTED_EDGE('',*,*,#30,.T.);
#72=ORIENTED_EDGE('',*,*,#41,.T.);
#73=ORIENTED_EDGE('',*,*,#74,.T.);
#74=EDGE_CURVE('',#38,#75,#77,.T.);
#75=VERTEX_POINT('',#76);
#76=CARTESIAN_POINT('',(1.526757702791E-14,-6.,0.));
#77=LINE('',#78,#79);
#78=CARTESIAN_POINT('',(-6.,-6.,0.));
#79=VECTOR('',#14,1.);
#80=ORIENTED_EDGE('',*,*,#81,.T.);
#81=EDGE_CURVE('',#75,#82,#84,.T.);
#82=VERTEX_POINT('',#83);
#83=CARTESIAN_POINT('',(6.,1.643897026074E-13,0.));
#84=CIRCLE('',#85,6.);
#85=AXIS2_PLACEMENT_3D('',#86,#13,#14);
#86=CARTESIAN_POINT('',(8.470329024991E-22,-8.235346579854E-22,0.));
#87=ORIENTED_EDGE('',*,*,#88,.T.);
#88=EDGE_CURVE('',#82,#89,#91,.T.);
#89=VERTEX_POINT('',#90);
#90=CARTESIAN_POINT('',(6.,4.875,0.));
#91=LINE('',#92,#93);
#92=CARTESIAN_POINT('',(6.,-6.,0.));
#93=VECTOR('',#94,1.);
#94=DIRECTION('',(0.,1.,0.));
#95=ORIENTED_EDGE('',*,*,#96,.T.);
#96=EDGE_CURVE('',#89,#97,#99,.T.);
#97=VERTEX_POINT('',#98);
#98=CARTESIAN_POINT('',(4.875,6.,0.));
#99=CIRCLE('',#100,1.125);
#100=AXIS2_PLACEMENT_3D('',#101,#28,#14);
#101=CARTESIAN_POINT('',(4.875,4.875,0.));
#102=ORIENTED_EDGE('',*,*,#103,.T.);
#103=EDGE_CURVE('',#97,#104,#106,.T.);
#104=VERTEX_POINT('',#105);
#105=CARTESIAN_POINT('',(-1.969776863869E-12,5.999999999993,0.));
#106=LINE('',#107,#108);
#107=CARTESIAN_POINT('',(6.,6.,0.));
#108=VECTOR('',#109,1.);
#109=DIRECTION('',(-1.,0.,0.));
#110=ORIENTED_EDGE('',*,*,#111,.T.);
#111=EDGE_CURVE('',#104,#112,#114,.T.);
#112=VERTEX_POINT('',#113);
#113=CARTESIAN_POINT('',(-5.999999999996,7.174666926538E-12,0.));
#114=CIRCLE('',#85,5.999999999985);
#115=ORIENTED_EDGE('',*,*,#116,.T.);
#116=EDGE_CURVE('',#112,#31,#117,.T.);
#117=LINE('',#118,#119);
#118=CARTESIAN_POINT('',(-6.,6.,0.));
#119=VECTOR('',#120,1.);
#120=DIRECTION('',(0.,-1.,0.));
#121=PLANE('',#11);
#122=ADVANCED_FACE('',(#123),#121,.F.);
#123=FACE_BOUND('',#124,.F.);
#124=EDGE_LOOP('',(#125,#128,#130));
#125=ORIENTED_EDGE('',*,*,#126,.T.);
#126=EDGE_CURVE('',#31,#127,#117,.T.);
#127=VERTEX_POINT('',#78);
#128=ORIENTED_EDGE('',*,*,#129,.T.);
#129=EDGE_CURVE('',#127,#38,#77,.T.);
#130=ORIENTED_EDGE('',*,*,#37,.T.);
#131=ADVANCED_FACE('',(#132),#134,.F.);
#132=FACE_BOUND('',#133,.F.);
#133=EDGE_LOOP('',(#61));
#134=PLANE('',#135);
#135=AXIS2_PLACEMENT_3D('',#136,#13,#14);
#136=CARTESIAN_POINT('',(3.038755850088E-16,3.79844481261E-16,-4.));
#137=ADVANCED_FACE('',(#138),#157,.F.);
#138=FACE_BOUND('',#139,.F.);
#139=EDGE_LOOP('',(#140,#141,#146,#152,#156));
#140=ORIENTED_EDGE('',*,*,#116,.F.);
#141=ORIENTED_EDGE('',*,*,#142,.F.);
#142=EDGE_CURVE('',#143,#112,#145,.T.);
#143=VERTEX_POINT('',#144);
#144=CARTESIAN_POINT('',(-5.999999999992,7.174628578737E-12,1.));
#145=LINE('',#144,#27);
#146=ORIENTED_EDGE('',*,*,#147,.T.);
#147=EDGE_CURVE('',#143,#148,#150,.T.);
#148=VERTEX_POINT('',#149);
#149=CARTESIAN_POINT('',(-6.,-6.,1.));
#150=LINE('',#151,#119);
#151=CARTESIAN_POINT('',(-6.,6.,1.));
#152=ORIENTED_EDGE('',*,*,#153,.F.);
#153=EDGE_CURVE('',#127,#148,#154,.T.);
#154=LINE('',#78,#155);
#155=VECTOR('',#13,1.);
#156=ORIENTED_EDGE('',*,*,#126,.F.);
#157=PLANE('',#158);
#158=AXIS2_PLACEMENT_3D('',#118,#14,#120);
#159=ADVANCED_FACE('',(#160),#172,.T.);
#160=FACE_BOUND('',#161,.T.);
#161=EDGE_LOOP('',(#162,#169,#110,#141));
#162=ORIENTED_EDGE('',*,*,#163,.F.);
#163=EDGE_CURVE('',#164,#143,#166,.T.);
#164=VERTEX_POINT('',#165);
#165=CARTESIAN_POINT('',(-1.969573992843E-12,5.999999999985,1.));
#166=CIRCLE('',#167,5.999999999985);
#167=AXIS2_PLACEMENT_3D('',#168,#13,#14);
#168=CARTESIAN_POINT('',(8.470329024991E-22,-8.235346579854E-22,1.));
#169=ORIENTED_EDGE('',*,*,#170,.T.);
#170=EDGE_CURVE('',#164,#104,#171,.T.);
#171=LINE('',#165,#27);
#172=CYLINDRICAL_SURFACE('',#167,5.999999999985);
#173=ADVANCED_FACE('',(#174),#188,.F.);
#174=FACE_BOUND('',#175,.F.);
#175=EDGE_LOOP('',(#176,#179,#184,#169,#187));
#176=ORIENTED_EDGE('',*,*,#177,.F.);
#177=EDGE_CURVE('',#178,#97,#106,.T.);
#178=VERTEX_POINT('',#107);
#179=ORIENTED_EDGE('',*,*,#180,.T.);
#180=EDGE_CURVE('',#178,#181,#183,.T.);
#181=VERTEX_POINT('',#182);
#182=CARTESIAN_POINT('',(6.,6.,1.));
#183=LINE('',#107,#155);
#184=ORIENTED_EDGE('',*,*,#185,.T.);
#185=EDGE_CURVE('',#181,#164,#186,.T.);
#186=LINE('',#182,#108);
#187=ORIENTED_EDGE('',*,*,#103,.F.);
#188=PLANE('',#189);
#189=AXIS2_PLACEMENT_3D('',#107,#120,#109);
#190=ADVANCED_FACE('',(#191),#207,.T.);
#191=FACE_BOUND('',#192,.F.);
#192=EDGE_LOOP('',(#193,#198,#200,#201,#202));
#193=ORIENTED_EDGE('',*,*,#194,.F.);
#194=EDGE_CURVE('',#89,#195,#197,.T.);
#195=VERTEX_POINT('',#196);
#196=CARTESIAN_POINT('',(6.,4.875,-3.6));
#197=LINE('',#90,#27);
#198=ORIENTED_EDGE('',*,*,#199,.F.);
#199=EDGE_CURVE('',#97,#89,#99,.T.);
#200=ORIENTED_EDGE('',*,*,#96,.F.);
#201=ORIENTED_EDGE('',*,*,#194,.T.);
#202=ORIENTED_EDGE('',*,*,#203,.T.);
#203=EDGE_CURVE('',#195,#195,#204,.T.);
#204=CIRCLE('',#205,1.125);
#205=AXIS2_PLACEMENT_3D('',#206,#28,#14);
#206=CARTESIAN_POINT('',(4.875,4.875,-3.6));
#207=CYLINDRICAL_SURFACE('',#208,1.125);
#208=AXIS2_PLACEMENT_3D('',#101,#13,#14);
#209=ADVANCED_FACE('',(#210),#225,.F.);
#210=FACE_BOUND('',#211,.F.);
#211=EDGE_LOOP('',(#212,#213,#218,#222,#223));
#212=ORIENTED_EDGE('',*,*,#88,.F.);
#213=ORIENTED_EDGE('',*,*,#214,.F.);
#214=EDGE_CURVE('',#215,#82,#217,.T.);
#215=VERTEX_POINT('',#216);
#216=CARTESIAN_POINT('',(6.,1.644663975702E-13,1.));
#217=LINE('',#216,#27);
#218=ORIENTED_EDGE('',*,*,#219,.T.);
#219=EDGE_CURVE('',#215,#181,#220,.T.);
#220=LINE('',#221,#93);
#221=CARTESIAN_POINT('',(6.,-6.,1.));
#222=ORIENTED_EDGE('',*,*,#180,.F.);
#223=ORIENTED_EDGE('',*,*,#224,.F.);
#224=EDGE_CURVE('',#89,#178,#91,.T.);
#225=PLANE('',#226);
#226=AXIS2_PLACEMENT_3D('',#92,#109,#94);
#227=ADVANCED_FACE('',(#228),#238,.T.);
#228=FACE_BOUND('',#229,.T.);
#229=EDGE_LOOP('',(#230,#235,#80,#213));
#230=ORIENTED_EDGE('',*,*,#231,.F.);
#231=EDGE_CURVE('',#232,#215,#234,.T.);
#232=VERTEX_POINT('',#233);
#233=CARTESIAN_POINT('',(1.543612092093E-14,-6.,1.));
#234=CIRCLE('',#167,6.);
#235=ORIENTED_EDGE('',*,*,#236,.T.);
#236=EDGE_CURVE('',#232,#75,#237,.T.);
#237=LINE('',#233,#27);
#238=CYLINDRICAL_SURFACE('',#167,6.);
#239=ADVANCED_FACE('',(#240),#248,.F.);
#240=FACE_BOUND('',#241,.F.);
#241=EDGE_LOOP('',(#242,#243,#244,#235,#247));
#242=ORIENTED_EDGE('',*,*,#129,.F.);
#243=ORIENTED_EDGE('',*,*,#153,.T.);
#244=ORIENTED_EDGE('',*,*,#245,.T.);
#245=EDGE_CURVE('',#148,#232,#246,.T.);
#246=LINE('',#149,#79);
#247=ORIENTED_EDGE('',*,*,#74,.F.);
#248=PLANE('',#249);
#249=AXIS2_PLACEMENT_3D('',#78,#94,#14);
#250=ADVANCED_FACE('',(#251,#255),#265,.T.);
#251=FACE_BOUND('',#252,.T.);
#252=EDGE_LOOP('',(#146,#244,#253,#218,#184,#254));
#253=ORIENTED_EDGE('',*,*,#231,.T.);
#254=ORIENTED_EDGE('',*,*,#163,.T.);
#255=FACE_BOUND('',#256,.T.);
#256=EDGE_LOOP('',(#257));
#257=ORIENTED_EDGE('',*,*,#258,.T.);
#258=EDGE_CURVE('',#259,#259,#261,.T.);
#259=VERTEX_POINT('',#260);
#260=CARTESIAN_POINT('',(4.,2.22044604925E-16,1.));
#261=CIRCLE('',#262,4.);
#262=AXIS2_PLACEMENT_3D('',#263,#264,#14);
#263=CARTESIAN_POINT('',(0.,2.22044604925E-16,1.));
#264=DIRECTION('',(0.,-2.22044604925E-16,-1.));
#265=PLANE('',#266);
#266=AXIS2_PLACEMENT_3D('',#267,#13,#14);
#267=CARTESIAN_POINT('',(0.,0.,1.));
#268=ADVANCED_FACE('',(#269),#121,.F.);
#269=FACE_BOUND('',#270,.F.);
#270=EDGE_LOOP('',(#271,#272,#273));
#271=ORIENTED_EDGE('',*,*,#199,.T.);
#272=ORIENTED_EDGE('',*,*,#224,.T.);
#273=ORIENTED_EDGE('',*,*,#177,.T.);
#274=ADVANCED_FACE('',(#275),#288,.T.);
#275=FACE_BOUND('',#276,.T.);
#276=EDGE_LOOP('',(#277,#202,#282,#283));
#277=ORIENTED_EDGE('',*,*,#278,.F.);
#278=EDGE_CURVE('',#195,#279,#281,.T.);
#279=VERTEX_POINT('',#280);
#280=CARTESIAN_POINT('',(5.6,4.875,-4.));
#281=LINE('',#196,#58);
#282=ORIENTED_EDGE('',*,*,#278,.T.);
#283=ORIENTED_EDGE('',*,*,#284,.F.);
#284=EDGE_CURVE('',#279,#279,#285,.T.);
#285=CIRCLE('',#286,0.725);
#286=AXIS2_PLACEMENT_3D('',#287,#28,#14);
#287=CARTESIAN_POINT('',(4.875,4.875,-4.));
#288=CONICAL_SURFACE('',#289,1.125,0.785398163397);
#289=AXIS2_PLACEMENT_3D('',#206,#13,#14);
#290=ADVANCED_FACE('',(#291),#307,.T.);
#291=FACE_BOUND('',#292,.T.);
#292=EDGE_LOOP('',(#293,#300,#305,#306));
#293=ORIENTED_EDGE('',*,*,#294,.F.);
#294=EDGE_CURVE('',#295,#259,#297,.T.);
#295=VERTEX_POINT('',#296);
#296=CARTESIAN_POINT('',(3.,4.440892098501E-16,2.));
#297=LINE('',#296,#298);
#298=VECTOR('',#299,1.);
#299=DIRECTION('',(0.707106781187,-1.570092458684E-16,-0.707106781187));
#300=ORIENTED_EDGE('',*,*,#301,.T.);
#301=EDGE_CURVE('',#295,#295,#302,.T.);
#302=CIRCLE('',#303,3.);
#303=AXIS2_PLACEMENT_3D('',#304,#264,#14);
#304=CARTESIAN_POINT('',(0.,4.440892098501E-16,2.));
#305=ORIENTED_EDGE('',*,*,#294,.T.);
#306=ORIENTED_EDGE('',*,*,#258,.F.);
#307=CONICAL_SURFACE('',#303,3.,0.785398163397);
#308=ADVANCED_FACE('',(#309),#134,.F.);
#309=FACE_BOUND('',#310,.F.);
#310=EDGE_LOOP('',(#283));
#311=ADVANCED_FACE('',(#312),#327,.T.);
#312=FACE_BOUND('',#313,.T.);
#313=EDGE_LOOP('',(#314,#321,#325,#326));
#314=ORIENTED_EDGE('',*,*,#315,.T.);
#315=EDGE_CURVE('',#316,#316,#318,.T.);
#316=VERTEX_POINT('',#317);
#317=CARTESIAN_POINT('',(3.,1.054711873394E-15,4.75));
#318=CIRCLE('',#319,3.);
#319=AXIS2_PLACEMENT_3D('',#320,#264,#14);
#320=CARTESIAN_POINT('',(0.,1.054711873394E-15,4.75));
#321=ORIENTED_EDGE('',*,*,#322,.T.);
#322=EDGE_CURVE('',#316,#295,#323,.T.);
#323=LINE('',#317,#324);
#324=VECTOR('',#264,1.);
#325=ORIENTED_EDGE('',*,*,#301,.F.);
#326=ORIENTED_EDGE('',*,*,#322,.F.);
#327=CYLINDRICAL_SURFACE('',#319,3.);
#328=ADVANCED_FACE('',(#329),#332,.F.);
#329=FACE_BOUND('',#330,.T.);
#330=EDGE_LOOP('',(#331));
#331=ORIENTED_EDGE('',*,*,#315,.F.);
#332=PLANE('',#319);
#333=( GEOMETRIC_REPRESENTATION_CONTEXT(3)GLOBAL_UNCERTAINTY_ASSIGNED_CONTEXT((#337)) GLOBAL_UNIT_ASSIGNED_CONTEXT((#334,#335,#336)) REPRESENTATION_CONTEXT('Context #1','3D Context with UNIT and UNCERTAINTY') );
#334=( LENGTH_UNIT() NAMED_UNIT(*) SI_UNIT(.MILLI.,.METRE.) );
#335=( NAMED_UNIT(*) PLANE_ANGLE_UNIT() SI_UNIT($,.RADIAN.) );
#336=( NAMED_UNIT(*) SI_UNIT($,.STERADIAN.) SOLID_ANGLE_UNIT() );
#337=UNCERTAINTY_MEASURE_WITH_UNIT(LENGTH_MEASURE(1.E-07),#334,'distance_accuracy_value','confusion accuracy');
#338=PRODUCT_RELATED_PRODUCT_CATEGORY('part',$,(#7));
#339=MECHANICAL_DESIGN_GEOMETRIC_PRESENTATION_REPRESENTATION('',(#340),#333);
#340=STYLED_ITEM('color',(#341),#15);
#341=PRESENTATION_STYLE_ASSIGNMENT((#342,#350));
#342=SURFACE_STYLE_USAGE(.BOTH.,#343);
#343=SURFACE_SIDE_STYLE('',(#344,#348));
#344=SURFACE_STYLE_FILL_AREA(#345);
#345=FILL_AREA_STYLE('',(#346));
#346=FILL_AREA_STYLE_COLOUR('',#347);
#347=COLOUR_RGB('',0.800000010877,0.800000010877,0.899999968064);
#348=SURFACE_STYLE_RENDERING_WITH_PROPERTIES(.NORMAL_SHADING.,#347,(#349));
#349=SURFACE_STYLE_TRANSPARENT(0.509999990463);
#350=CURVE_STYLE('',#351,POSITIVE_LENGTH_MEASURE(0.1),#352);
#351=DRAUGHTING_PRE_DEFINED_CURVE_FONT('continuous');
#352=COLOUR_RGB('',9.803921802644E-02,9.803921802644E-02,9.803921802644E-02);
ENDSEC;
END-ISO-10303-21;
