ISO-10303-21;
HEADER;
FILE_DESCRIPTION(('FreeCAD Model'),'2;1');
FILE_NAME('Open CASCADE Shape Model','2026-04-30T16:05:49',(''),(''),
'Open CASCADE STEP processor 7.9','FreeCAD','Unknown');
FILE_SCHEMA((
'AP242_MANAGED_MODEL_BASED_3D_ENGINEERING_MIM_LF {1 0 10303 442 1 1 4 }'
));
ENDSEC;
DATA;
#1=APPLICATION_PROTOCOL_DEFINITION('international standard','ap242_managed_model_based_3d_engineering',2013,#2);
#2=APPLICATION_CONTEXT('Managed model based 3d engineering');
#3=SHAPE_DEFINITION_REPRESENTATION(#4,#10);
#4=PRODUCT_DEFINITION_SHAPE('','',#5);
#5=PRODUCT_DEFINITION('design','',#6,#9);
#6=PRODUCT_DEFINITION_FORMATION('','',#7);
#7=PRODUCT('Body','Body','',(#8));
#8=PRODUCT_CONTEXT('',#2,'mechanical');
#9=PRODUCT_DEFINITION_CONTEXT('part definition',#2,'design');
#10=ADVANCED_BREP_SHAPE_REPRESENTATION('',(#11,#15),#338);
#11=AXIS2_PLACEMENT_3D('',#12,#13,#14);
#12=CARTESIAN_POINT('',(0.,0.,0.));
#13=DIRECTION('',(0.,0.,1.));
#14=DIRECTION('',(1.,0.,0.));
#15=MANIFOLD_SOLID_BREP('',#16);
#16=CLOSED_SHELL('',(#17,#50,#68,#124,#133,#139,#161,#177,#195,#214,#232,#245,#256,#273,#279,#295,#313,#316,#333));
#17=ADVANCED_FACE('',(#18),#48,.T.);
#18=FACE_BOUND('',#19,.F.);
#19=EDGE_LOOP('',(#20,#29,#36,#40,#42,#43));
#20=ORIENTED_EDGE('',*,*,#21,.F.);
#21=EDGE_CURVE('',#22,#24,#26,.T.);
#22=VERTEX_POINT('',#23);
#23=CARTESIAN_POINT('',(-3.75,-4.875,0.));
#24=VERTEX_POINT('',#25);
#25=CARTESIAN_POINT('',(-3.75,-4.875,-3.6));
#26=LINE('',#23,#27);
#27=VECTOR('',#28,1.);
#28=DIRECTION('',(0.,0.,-1.));
#29=ORIENTED_EDGE('',*,*,#30,.F.);
#30=EDGE_CURVE('',#31,#22,#33,.T.);
#31=VERTEX_POINT('',#32);
#32=CARTESIAN_POINT('',(-6.,-4.874999997573,0.));
#33=CIRCLE('',#34,1.125);
#34=AXIS2_PLACEMENT_3D('',#35,#28,#14);
#35=CARTESIAN_POINT('',(-4.875,-4.875,0.));
#36=ORIENTED_EDGE('',*,*,#37,.F.);
#37=EDGE_CURVE('',#38,#31,#33,.T.);
#38=VERTEX_POINT('',#39);
#39=CARTESIAN_POINT('',(-4.875,-6.,0.));
#40=ORIENTED_EDGE('',*,*,#41,.F.);
#41=EDGE_CURVE('',#22,#38,#33,.T.);
#42=ORIENTED_EDGE('',*,*,#21,.T.);
#43=ORIENTED_EDGE('',*,*,#44,.T.);
#44=EDGE_CURVE('',#24,#24,#45,.T.);
#45=CIRCLE('',#46,1.125);
#46=AXIS2_PLACEMENT_3D('',#47,#28,#14);
#47=CARTESIAN_POINT('',(-4.875,-4.875,-3.6));
#48=CYLINDRICAL_SURFACE('',#49,1.125);
#49=AXIS2_PLACEMENT_3D('',#35,#13,#14);
#50=ADVANCED_FACE('',(#51),#66,.T.);
#51=FACE_BOUND('',#52,.T.);
#52=EDGE_LOOP('',(#53,#43,#60,#61));
#53=ORIENTED_EDGE('',*,*,#54,.F.);
#54=EDGE_CURVE('',#24,#55,#57,.T.);
#55=VERTEX_POINT('',#56);
#56=CARTESIAN_POINT('',(-4.15,-4.875,-4.));
#57=LINE('',#25,#58);
#58=VECTOR('',#59,1.);
#59=DIRECTION('',(-0.707106781187,0.,-0.707106781187));
#60=ORIENTED_EDGE('',*,*,#54,.T.);
#61=ORIENTED_EDGE('',*,*,#62,.F.);
#62=EDGE_CURVE('',#55,#55,#63,.T.);
#63=CIRCLE('',#64,0.725);
#64=AXIS2_PLACEMENT_3D('',#65,#28,#14);
#65=CARTESIAN_POINT('',(-4.875,-4.875,-4.));
#66=CONICAL_SURFACE('',#67,1.125,0.785398163397);
#67=AXIS2_PLACEMENT_3D('',#47,#13,#14);
#68=ADVANCED_FACE('',(#69),#123,.F.);
#69=FACE_BOUND('',#70,.F.);
#70=EDGE_LOOP('',(#71,#72,#73,#80,#88,#96,#103,#111,#117));
#71=ORIENTED_EDGE('',*,*,#30,.T.);
#72=ORIENTED_EDGE('',*,*,#41,.T.);
#73=ORIENTED_EDGE('',*,*,#74,.T.);
#74=EDGE_CURVE('',#38,#75,#77,.T.);
#75=VERTEX_POINT('',#76);
#76=CARTESIAN_POINT('',(0.,-6.,0.));
#77=LINE('',#78,#79);
#78=CARTESIAN_POINT('',(-6.,-6.,0.));
#79=VECTOR('',#14,1.);
#80=ORIENTED_EDGE('',*,*,#81,.T.);
#81=EDGE_CURVE('',#75,#82,#84,.T.);
#82=VERTEX_POINT('',#83);
#83=CARTESIAN_POINT('',(6.,0.,0.));
#84=LINE('',#85,#86);
#85=CARTESIAN_POINT('',(1.5,-4.5,0.));
#86=VECTOR('',#87,1.);
#87=DIRECTION('',(0.707106781187,0.707106781187,0.));
#88=ORIENTED_EDGE('',*,*,#89,.T.);
#89=EDGE_CURVE('',#82,#90,#92,.T.);
#90=VERTEX_POINT('',#91);
#91=CARTESIAN_POINT('',(6.,4.875,0.));
#92=LINE('',#93,#94);
#93=CARTESIAN_POINT('',(6.,-6.,0.));
#94=VECTOR('',#95,1.);
#95=DIRECTION('',(0.,1.,0.));
#96=ORIENTED_EDGE('',*,*,#97,.T.);
#97=EDGE_CURVE('',#90,#98,#100,.T.);
#98=VERTEX_POINT('',#99);
#99=CARTESIAN_POINT('',(4.875,6.,0.));
#100=CIRCLE('',#101,1.125);
#101=AXIS2_PLACEMENT_3D('',#102,#28,#14);
#102=CARTESIAN_POINT('',(4.875,4.875,0.));
#103=ORIENTED_EDGE('',*,*,#104,.T.);
#104=EDGE_CURVE('',#98,#105,#107,.T.);
#105=VERTEX_POINT('',#106);
#106=CARTESIAN_POINT('',(0.,6.,0.));
#107=LINE('',#108,#109);
#108=CARTESIAN_POINT('',(6.,6.,0.));
#109=VECTOR('',#110,1.);
#110=DIRECTION('',(-1.,0.,0.));
#111=ORIENTED_EDGE('',*,*,#112,.F.);
#112=EDGE_CURVE('',#113,#105,#115,.T.);
#113=VERTEX_POINT('',#114);
#114=CARTESIAN_POINT('',(-6.,0.,0.));
#115=LINE('',#116,#86);
#116=CARTESIAN_POINT('',(-4.5,1.5,-1.1E-16));
#117=ORIENTED_EDGE('',*,*,#118,.T.);
#118=EDGE_CURVE('',#113,#31,#119,.T.);
#119=LINE('',#120,#121);
#120=CARTESIAN_POINT('',(-6.,6.,0.));
#121=VECTOR('',#122,1.);
#122=DIRECTION('',(0.,-1.,0.));
#123=PLANE('',#11);
#124=ADVANCED_FACE('',(#125),#123,.F.);
#125=FACE_BOUND('',#126,.F.);
#126=EDGE_LOOP('',(#127,#130,#132));
#127=ORIENTED_EDGE('',*,*,#128,.T.);
#128=EDGE_CURVE('',#31,#129,#119,.T.);
#129=VERTEX_POINT('',#78);
#130=ORIENTED_EDGE('',*,*,#131,.T.);
#131=EDGE_CURVE('',#129,#38,#77,.T.);
#132=ORIENTED_EDGE('',*,*,#37,.T.);
#133=ADVANCED_FACE('',(#134),#136,.F.);
#134=FACE_BOUND('',#135,.F.);
#135=EDGE_LOOP('',(#61));
#136=PLANE('',#137);
#137=AXIS2_PLACEMENT_3D('',#138,#13,#14);
#138=CARTESIAN_POINT('',(3.E-16,3.8E-16,-4.));
#139=ADVANCED_FACE('',(#140),#159,.F.);
#140=FACE_BOUND('',#141,.F.);
#141=EDGE_LOOP('',(#142,#143,#148,#154,#158));
#142=ORIENTED_EDGE('',*,*,#118,.F.);
#143=ORIENTED_EDGE('',*,*,#144,.F.);
#144=EDGE_CURVE('',#145,#113,#147,.T.);
#145=VERTEX_POINT('',#146);
#146=CARTESIAN_POINT('',(-6.,0.,1.));
#147=LINE('',#146,#27);
#148=ORIENTED_EDGE('',*,*,#149,.T.);
#149=EDGE_CURVE('',#145,#150,#152,.T.);
#150=VERTEX_POINT('',#151);
#151=CARTESIAN_POINT('',(-6.,-6.,1.));
#152=LINE('',#153,#121);
#153=CARTESIAN_POINT('',(-6.,6.,1.));
#154=ORIENTED_EDGE('',*,*,#155,.F.);
#155=EDGE_CURVE('',#129,#150,#156,.T.);
#156=LINE('',#78,#157);
#157=VECTOR('',#13,1.);
#158=ORIENTED_EDGE('',*,*,#128,.F.);
#159=PLANE('',#160);
#160=AXIS2_PLACEMENT_3D('',#120,#14,#122);
#161=ADVANCED_FACE('',(#162),#174,.F.);
#162=FACE_BOUND('',#163,.F.);
#163=EDGE_LOOP('',(#164,#169,#170,#171));
#164=ORIENTED_EDGE('',*,*,#165,.F.);
#165=EDGE_CURVE('',#145,#166,#168,.T.);
#166=VERTEX_POINT('',#167);
#167=CARTESIAN_POINT('',(0.,6.,1.));
#168=LINE('',#146,#86);
#169=ORIENTED_EDGE('',*,*,#144,.T.);
#170=ORIENTED_EDGE('',*,*,#112,.T.);
#171=ORIENTED_EDGE('',*,*,#172,.F.);
#172=EDGE_CURVE('',#166,#105,#173,.T.);
#173=LINE('',#167,#27);
#174=PLANE('',#175);
#175=AXIS2_PLACEMENT_3D('',#146,#176,#87);
#176=DIRECTION('',(0.707106781187,-0.707106781187,0.));
#177=ADVANCED_FACE('',(#178),#193,.F.);
#178=FACE_BOUND('',#179,.F.);
#179=EDGE_LOOP('',(#180,#183,#188,#191,#192));
#180=ORIENTED_EDGE('',*,*,#181,.F.);
#181=EDGE_CURVE('',#182,#98,#107,.T.);
#182=VERTEX_POINT('',#108);
#183=ORIENTED_EDGE('',*,*,#184,.T.);
#184=EDGE_CURVE('',#182,#185,#187,.T.);
#185=VERTEX_POINT('',#186);
#186=CARTESIAN_POINT('',(6.,6.,1.));
#187=LINE('',#108,#157);
#188=ORIENTED_EDGE('',*,*,#189,.T.);
#189=EDGE_CURVE('',#185,#166,#190,.T.);
#190=LINE('',#186,#109);
#191=ORIENTED_EDGE('',*,*,#172,.T.);
#192=ORIENTED_EDGE('',*,*,#104,.F.);
#193=PLANE('',#194);
#194=AXIS2_PLACEMENT_3D('',#108,#122,#110);
#195=ADVANCED_FACE('',(#196),#212,.T.);
#196=FACE_BOUND('',#197,.F.);
#197=EDGE_LOOP('',(#198,#203,#205,#206,#207));
#198=ORIENTED_EDGE('',*,*,#199,.F.);
#199=EDGE_CURVE('',#90,#200,#202,.T.);
#200=VERTEX_POINT('',#201);
#201=CARTESIAN_POINT('',(6.,4.875,-3.6));
#202=LINE('',#91,#27);
#203=ORIENTED_EDGE('',*,*,#204,.F.);
#204=EDGE_CURVE('',#98,#90,#100,.T.);
#205=ORIENTED_EDGE('',*,*,#97,.F.);
#206=ORIENTED_EDGE('',*,*,#199,.T.);
#207=ORIENTED_EDGE('',*,*,#208,.T.);
#208=EDGE_CURVE('',#200,#200,#209,.T.);
#209=CIRCLE('',#210,1.125);
#210=AXIS2_PLACEMENT_3D('',#211,#28,#14);
#211=CARTESIAN_POINT('',(4.875,4.875,-3.6));
#212=CYLINDRICAL_SURFACE('',#213,1.125);
#213=AXIS2_PLACEMENT_3D('',#102,#13,#14);
#214=ADVANCED_FACE('',(#215),#230,.F.);
#215=FACE_BOUND('',#216,.F.);
#216=EDGE_LOOP('',(#217,#218,#223,#227,#228));
#217=ORIENTED_EDGE('',*,*,#89,.F.);
#218=ORIENTED_EDGE('',*,*,#219,.F.);
#219=EDGE_CURVE('',#220,#82,#222,.T.);
#220=VERTEX_POINT('',#221);
#221=CARTESIAN_POINT('',(6.,0.,1.));
#222=LINE('',#221,#27);
#223=ORIENTED_EDGE('',*,*,#224,.T.);
#224=EDGE_CURVE('',#220,#185,#225,.T.);
#225=LINE('',#226,#94);
#226=CARTESIAN_POINT('',(6.,-6.,1.));
#227=ORIENTED_EDGE('',*,*,#184,.F.);
#228=ORIENTED_EDGE('',*,*,#229,.F.);
#229=EDGE_CURVE('',#90,#182,#92,.T.);
#230=PLANE('',#231);
#231=AXIS2_PLACEMENT_3D('',#93,#110,#95);
#232=ADVANCED_FACE('',(#233),#243,.T.);
#233=FACE_BOUND('',#234,.T.);
#234=EDGE_LOOP('',(#235,#240,#80,#218));
#235=ORIENTED_EDGE('',*,*,#236,.F.);
#236=EDGE_CURVE('',#237,#220,#239,.T.);
#237=VERTEX_POINT('',#238);
#238=CARTESIAN_POINT('',(0.,-6.,1.));
#239=LINE('',#238,#86);
#240=ORIENTED_EDGE('',*,*,#241,.T.);
#241=EDGE_CURVE('',#237,#75,#242,.T.);
#242=LINE('',#238,#27);
#243=PLANE('',#244);
#244=AXIS2_PLACEMENT_3D('',#238,#176,#87);
#245=ADVANCED_FACE('',(#246),#254,.F.);
#246=FACE_BOUND('',#247,.F.);
#247=EDGE_LOOP('',(#248,#249,#250,#240,#253));
#248=ORIENTED_EDGE('',*,*,#131,.F.);
#249=ORIENTED_EDGE('',*,*,#155,.T.);
#250=ORIENTED_EDGE('',*,*,#251,.T.);
#251=EDGE_CURVE('',#150,#237,#252,.T.);
#252=LINE('',#151,#79);
#253=ORIENTED_EDGE('',*,*,#74,.F.);
#254=PLANE('',#255);
#255=AXIS2_PLACEMENT_3D('',#78,#95,#14);
#256=ADVANCED_FACE('',(#257,#260),#270,.T.);
#257=FACE_BOUND('',#258,.T.);
#258=EDGE_LOOP('',(#148,#250,#259,#223,#188,#164));
#259=ORIENTED_EDGE('',*,*,#236,.T.);
#260=FACE_BOUND('',#261,.T.);
#261=EDGE_LOOP('',(#262));
#262=ORIENTED_EDGE('',*,*,#263,.T.);
#263=EDGE_CURVE('',#264,#264,#266,.T.);
#264=VERTEX_POINT('',#265);
#265=CARTESIAN_POINT('',(4.,0.,1.));
#266=CIRCLE('',#267,4.);
#267=AXIS2_PLACEMENT_3D('',#268,#269,#14);
#268=CARTESIAN_POINT('',(0.,2.2E-16,1.));
#269=DIRECTION('',(0.,-2.2E-16,-1.));
#270=PLANE('',#271);
#271=AXIS2_PLACEMENT_3D('',#272,#13,#14);
#272=CARTESIAN_POINT('',(0.,0.,1.));
#273=ADVANCED_FACE('',(#274),#123,.F.);
#274=FACE_BOUND('',#275,.F.);
#275=EDGE_LOOP('',(#276,#277,#278));
#276=ORIENTED_EDGE('',*,*,#204,.T.);
#277=ORIENTED_EDGE('',*,*,#229,.T.);
#278=ORIENTED_EDGE('',*,*,#181,.T.);
#279=ADVANCED_FACE('',(#280),#293,.T.);
#280=FACE_BOUND('',#281,.T.);
#281=EDGE_LOOP('',(#282,#207,#287,#288));
#282=ORIENTED_EDGE('',*,*,#283,.F.);
#283=EDGE_CURVE('',#200,#284,#286,.T.);
#284=VERTEX_POINT('',#285);
#285=CARTESIAN_POINT('',(5.6,4.875,-4.));
#286=LINE('',#201,#58);
#287=ORIENTED_EDGE('',*,*,#283,.T.);
#288=ORIENTED_EDGE('',*,*,#289,.F.);
#289=EDGE_CURVE('',#284,#284,#290,.T.);
#290=CIRCLE('',#291,0.725);
#291=AXIS2_PLACEMENT_3D('',#292,#28,#14);
#292=CARTESIAN_POINT('',(4.875,4.875,-4.));
#293=CONICAL_SURFACE('',#294,1.125,0.785398163397);
#294=AXIS2_PLACEMENT_3D('',#211,#13,#14);
#295=ADVANCED_FACE('',(#296),#312,.T.);
#296=FACE_BOUND('',#297,.T.);
#297=EDGE_LOOP('',(#298,#305,#310,#311));
#298=ORIENTED_EDGE('',*,*,#299,.F.);
#299=EDGE_CURVE('',#300,#264,#302,.T.);
#300=VERTEX_POINT('',#301);
#301=CARTESIAN_POINT('',(3.,0.,2.));
#302=LINE('',#301,#303);
#303=VECTOR('',#304,1.);
#304=DIRECTION('',(0.707106781187,0.,-0.707106781187));
#305=ORIENTED_EDGE('',*,*,#306,.T.);
#306=EDGE_CURVE('',#300,#300,#307,.T.);
#307=CIRCLE('',#308,3.);
#308=AXIS2_PLACEMENT_3D('',#309,#269,#14);
#309=CARTESIAN_POINT('',(0.,4.4E-16,2.));
#310=ORIENTED_EDGE('',*,*,#299,.T.);
#311=ORIENTED_EDGE('',*,*,#263,.F.);
#312=CONICAL_SURFACE('',#308,3.,0.785398163397);
#313=ADVANCED_FACE('',(#314),#136,.F.);
#314=FACE_BOUND('',#315,.F.);
#315=EDGE_LOOP('',(#288));
#316=ADVANCED_FACE('',(#317),#332,.T.);
#317=FACE_BOUND('',#318,.T.);
#318=EDGE_LOOP('',(#319,#326,#330,#331));
#319=ORIENTED_EDGE('',*,*,#320,.T.);
#320=EDGE_CURVE('',#321,#321,#323,.T.);
#321=VERTEX_POINT('',#322);
#322=CARTESIAN_POINT('',(3.,1.E-15,4.75));
#323=CIRCLE('',#324,3.);
#324=AXIS2_PLACEMENT_3D('',#325,#269,#14);
#325=CARTESIAN_POINT('',(0.,1.05E-15,4.75));
#326=ORIENTED_EDGE('',*,*,#327,.T.);
#327=EDGE_CURVE('',#321,#300,#328,.T.);
#328=LINE('',#329,#27);
#329=CARTESIAN_POINT('',(3.,0.,4.75));
#330=ORIENTED_EDGE('',*,*,#306,.F.);
#331=ORIENTED_EDGE('',*,*,#327,.F.);
#332=CYLINDRICAL_SURFACE('',#324,3.);
#333=ADVANCED_FACE('',(#334),#337,.F.);
#334=FACE_BOUND('',#335,.T.);
#335=EDGE_LOOP('',(#336));
#336=ORIENTED_EDGE('',*,*,#320,.F.);
#337=PLANE('',#324);
#338=( GEOMETRIC_REPRESENTATION_CONTEXT(3)GLOBAL_UNCERTAINTY_ASSIGNED_CONTEXT((#342)) GLOBAL_UNIT_ASSIGNED_CONTEXT((#339,#340,#341)) REPRESENTATION_CONTEXT('Context #1','3D Context with UNIT and UNCERTAINTY') );
#339=( LENGTH_UNIT() NAMED_UNIT(*) SI_UNIT(.MILLI.,.METRE.) );
#340=( NAMED_UNIT(*) PLANE_ANGLE_UNIT() SI_UNIT($,.RADIAN.) );
#341=( NAMED_UNIT(*) SI_UNIT($,.STERADIAN.) SOLID_ANGLE_UNIT() );
#342=UNCERTAINTY_MEASURE_WITH_UNIT(LENGTH_MEASURE(1.E-06),#339,'distance_accuracy_value','confusion accuracy');
#343=PRODUCT_RELATED_PRODUCT_CATEGORY('part',$,(#7));
#344=MECHANICAL_DESIGN_GEOMETRIC_PRESENTATION_REPRESENTATION('',(#345),#338);
#345=STYLED_ITEM('color',(#346),#15);
#346=PRESENTATION_STYLE_ASSIGNMENT((#347,#355));
#347=SURFACE_STYLE_USAGE(.BOTH.,#348);
#348=SURFACE_SIDE_STYLE('',(#349,#353));
#349=SURFACE_STYLE_FILL_AREA(#350);
#350=FILL_AREA_STYLE('',(#351));
#351=FILL_AREA_STYLE_COLOUR('',#352);
#352=COLOUR_RGB('',0.800000010877,0.800000010877,0.901960800373);
#353=SURFACE_STYLE_RENDERING_WITH_PROPERTIES(.NORMAL_SHADING.,#352,(#354));
#354=SURFACE_STYLE_TRANSPARENT(0.509999990463);
#355=CURVE_STYLE('',#356,POSITIVE_LENGTH_MEASURE(0.1),#357);
#356=DRAUGHTING_PRE_DEFINED_CURVE_FONT('continuous');
#357=COLOUR_RGB('',9.803921802644E-02,9.803921802644E-02,9.803921802644E-02);
ENDSEC;
END-ISO-10303-21;
